REM DIRINDEX 1\2,1\3,1\4,1\5,1\6
REM DIRNAME "folder01","folder02","folder03","folder04","folder05","folder06"
TITLE ""
FILE "Disc2Track59.mp3" MP3
  TRACK 01 AUDIO
    TITLE "3:cjc161_03757"
    INDEX 01 00:00:00
  TRACK 02 AUDIO
    TITLE "4:cjc161_03758"
    INDEX 01 00:01:14
  TRACK 03 AUDIO
    TITLE "5:cjc161_03759"
    INDEX 01 00:02:21
  TRACK 04 AUDIO
    TITLE "0:"
    INDEX 01 00:03:46
  TRACK 05 AUDIO
    TITLE "3:cjc161_03760"
    INDEX 01 00:04:12
  TRACK 06 AUDIO
    TITLE "4:cjc161_03761"
    INDEX 01 00:05:23
  TRACK 07 AUDIO
    TITLE "5:cjc161_03762"
    INDEX 01 00:06:74
  TRACK 08 AUDIO
    TITLE "0:"
    INDEX 01 00:08:10
  TRACK 09 AUDIO
    TITLE "3:cjc161_03763"
    INDEX 01 00:08:51
  TRACK 10 AUDIO
    TITLE "4:cjc161_03764"
    INDEX 01 00:10:05
  TRACK 11 AUDIO
    TITLE "5:cjc161_03765"
    INDEX 01 00:10:62
  TRACK 12 AUDIO
    TITLE "0:"
    INDEX 01 00:12:15
  TRACK 13 AUDIO
    TITLE "3:cjc161_03766"
    INDEX 01 00:12:49
  TRACK 14 AUDIO
    TITLE "4:cjc161_03767"
    INDEX 01 00:13:68
  TRACK 15 AUDIO
    TITLE "5:cjc161_03768"
    INDEX 01 00:14:75
  TRACK 16 AUDIO
    TITLE "0:"
    INDEX 01 00:16:21
  TRACK 17 AUDIO
    TITLE "3:cjc161_03769"
    INDEX 01 00:16:58
  TRACK 18 AUDIO
    TITLE "4:cjc161_03770"
    INDEX 01 00:18:18
  TRACK 19 AUDIO
    TITLE "5:cjc161_03771"
    INDEX 01 00:20:01
  TRACK 20 AUDIO
    TITLE "6:cjc161_03772"
    INDEX 01 00:21:36
  TRACK 21 AUDIO
    TITLE "0:"
    INDEX 01 00:25:08
  TRACK 22 AUDIO
    TITLE "3:cjc161_03773"
    INDEX 01 00:25:40
  TRACK 23 AUDIO
    TITLE "4:cjc161_03774"
    INDEX 01 00:26:74
  TRACK 24 AUDIO
    TITLE "5:cjc161_03775"
    INDEX 01 00:29:57
  TRACK 25 AUDIO
    TITLE "6:cjc161_03776"
    INDEX 01 00:31:17
  TRACK 26 AUDIO
    TITLE "0:"
    INDEX 01 00:35:46
  TRACK 27 AUDIO
    TITLE "3:cjc161_03777"
    INDEX 01 00:36:02
  TRACK 28 AUDIO
    TITLE "4:cjc161_03778"
    INDEX 01 00:37:33
  TRACK 29 AUDIO
    TITLE "5:cjc161_03779"
    INDEX 01 00:38:25
  TRACK 30 AUDIO
    TITLE "0:"
    INDEX 01 00:39:57
  TRACK 31 AUDIO
    TITLE "3:cjc161_03780"
    INDEX 01 00:40:10
  TRACK 32 AUDIO
    TITLE "4:cjc161_03781"
    INDEX 01 00:41:23
  TRACK 33 AUDIO
    TITLE "5:cjc161_03782"
    INDEX 01 00:44:29
  TRACK 34 AUDIO
    TITLE "6:cjc161_03783"
    INDEX 01 00:45:38
  TRACK 35 AUDIO
    TITLE "0:"
    INDEX 01 00:47:33
  TRACK 36 AUDIO
    TITLE "3:cjc161_03784"
    INDEX 01 00:47:73
  TRACK 37 AUDIO
    TITLE "4:cjc161_03785"
    INDEX 01 00:49:17
  TRACK 38 AUDIO
    TITLE "5:cjc161_03786"
    INDEX 01 00:50:51
  TRACK 39 AUDIO
    TITLE "6:cjc161_03787"
    INDEX 01 00:51:66
  TRACK 40 AUDIO
    TITLE "0:"
    INDEX 01 00:58:02
  TRACK 41 AUDIO
    TITLE "3:cjc161_03788"
    INDEX 01 00:58:31
  TRACK 42 AUDIO
    TITLE "4:cjc161_03789"
    INDEX 01 00:59:70
  TRACK 43 AUDIO
    TITLE "5:cjc161_03790"
    INDEX 01 01:00:75
  TRACK 44 AUDIO
    TITLE "6:cjc161_03791"
    INDEX 01 01:02:37
  TRACK 45 AUDIO
    TITLE "0:"
    INDEX 01 01:04:18
  TRACK 46 AUDIO
    TITLE "3:cjc161_03792"
    INDEX 01 01:04:57
  TRACK 47 AUDIO
    TITLE "4:cjc161_03793"
    INDEX 01 01:06:03
  TRACK 48 AUDIO
    TITLE "5:cjc161_03794"
    INDEX 01 01:08:20
  TRACK 49 AUDIO
    TITLE "6:cjc161_03795"
    INDEX 01 01:09:37
  TRACK 50 AUDIO
    TITLE "0:"
    INDEX 01 01:13:35
  TRACK 51 AUDIO
    TITLE "3:cjc161_03796"
    INDEX 01 01:13:66
  TRACK 52 AUDIO
    TITLE "4:cjc161_03797"
    INDEX 01 01:15:12
  TRACK 53 AUDIO
    TITLE "5:cjc161_03798"
    INDEX 01 01:16:60
  TRACK 54 AUDIO
    TITLE "0:"
    INDEX 01 01:18:06
  TRACK 55 AUDIO
    TITLE "3:cjc161_03799"
    INDEX 01 01:18:44
  TRACK 56 AUDIO
    TITLE "4:cjc161_03800"
    INDEX 01 01:19:65
  TRACK 57 AUDIO
    TITLE "5:cjc161_03801"
    INDEX 01 01:20:62
  TRACK 58 AUDIO
    TITLE "6:cjc161_03802"
    INDEX 01 01:22:04
  TRACK 59 AUDIO
    TITLE "0:"
    INDEX 01 01:25:52
  TRACK 60 AUDIO
    TITLE "3:cjc161_03803"
    INDEX 01 01:26:06
  TRACK 61 AUDIO
    TITLE "4:cjc161_03804"
    INDEX 01 01:27:39
  TRACK 62 AUDIO
    TITLE "5:cjc161_03805"
    INDEX 01 01:28:68
  TRACK 63 AUDIO
    TITLE "0:"
    INDEX 01 01:30:29
  TRACK 64 AUDIO
    TITLE "3:cjc161_03806"
    INDEX 01 01:30:66
  TRACK 65 AUDIO
    TITLE "4:cjc161_03807"
    INDEX 01 01:32:30
  TRACK 66 AUDIO
    TITLE "5:cjc161_03808"
    INDEX 01 01:34:23
  TRACK 67 AUDIO
    TITLE "6:cjc161_03809"
    INDEX 01 01:35:62
  TRACK 68 AUDIO
    TITLE "0:"
    INDEX 01 01:42:19
  TRACK 69 AUDIO
    TITLE "3:cjc161_03810"
    INDEX 01 01:42:56
  TRACK 70 AUDIO
    TITLE "4:cjc161_03811"
    INDEX 01 01:44:20
  TRACK 71 AUDIO
    TITLE "5:cjc161_03812"
    INDEX 01 01:46:50
  TRACK 72 AUDIO
    TITLE "0:"
    INDEX 01 01:48:17
